<svg height="64" viewBox="0 0 128 128" width="64" xmlns="http://www.w3.org/2000/svg" xmlns:xlink="http://www.w3.org/1999/xlink"><linearGradient id="a" gradientUnits="userSpaceOnUse" x1="0" x2="128" y1="128" y2="0"><stop offset="0" stop-color="#333"/><stop offset="1" stop-color="#5d5d5d"/></linearGradient><path d="m64.000181 18.04379c-13.650936 0-24.805879 11.154941-24.805879 24.805879v14.728491c-5.434652 1.19027-9.474468 5.997902-9.474468 11.800017v28.251136c0 6.701757 5.399731 12.101477 12.101479 12.101477h44.357737c6.70175 0 12.05842-5.39972 12.05842-12.101477v-28.251136c0-5.787578-4.01734-10.59459-9.43141-11.800017v-14.728491c0-13.650938-11.15494-24.805879-24.805879-24.805879zm0 8.268626c9.182244 0 16.537259 7.355011 16.537259 16.537253v14.470096h-33.074512v-14.470096c0-9.182242 7.355013-16.537253 16.537253-16.537253z" fill="url(#a)"/><path d="m100.67049 0c-15.09189 0-27.329493 12.237598-27.329493 27.329497 0 15.091898 12.237603 27.329501 27.329493 27.329501 15.0919 0 27.32951-12.237603 27.32951-27.329501 0-15.091899-12.23761-27.329497-27.32951-27.329497zm-13.33873 9.147091 13.33873 13.338732 13.33874-13.338732 4.84367 4.843673-13.33874 13.338733 13.33874 13.338739-4.84367 4.84367-13.33874-13.338734-13.33873 13.338734-4.84367-4.84367 13.338734-13.338739-13.338734-13.338733z" fill="#bf0000"/></svg>