<svg height="64" viewBox="0 0 128 128" width="64" xmlns="http://www.w3.org/2000/svg" xmlns:xlink="http://www.w3.org/1999/xlink"><linearGradient id="a" gradientUnits="userSpaceOnUse" x1="0" x2="128" y1="128" y2="0"><stop offset="0" stop-color="#333"/><stop offset="1" stop-color="#5d5d5d"/></linearGradient><path d="m64.000181 18.04379c-13.650936 0-24.805879 11.154941-24.805879 24.805879v14.728491c-5.434652 1.19027-9.474468 5.997902-9.474468 11.800017v28.251136c0 6.701757 5.399731 12.101477 12.101479 12.101477h44.357737c6.70175 0 12.05842-5.39972 12.05842-12.101477v-28.251136c0-5.787578-4.01734-10.59459-9.43141-11.800017v-14.728491c0-13.650938-11.15494-24.805879-24.805879-24.805879zm0 8.268626c9.182244 0 16.537259 7.355011 16.537259 16.537253v14.470096h-33.074512v-14.470096c0-9.182242 7.355013-16.537253 16.537253-16.537253z" fill="url(#a)"/><path d="m100.67051 0c-15.091905 0-27.329508 12.237601-27.329508 27.329504 0 15.0919 12.237603 27.32951 27.329508 27.32951 15.09189 0 27.32949-12.23761 27.32949-27.32951 0-15.091903-12.2376-27.329504-27.32949-27.329504zm13.78584 11.680708 5.79378 4.508344-20.846423 26.789242-.149038-.111744-5.644746-4.396567-12.500409-9.705979 4.508338-5.79378 12.500414 9.705979 16.338084-20.995468z" fill="#15a100"/></svg>